<svg width="41" height="40" viewBox="0 0 41 40" fill="none" xmlns="http://www.w3.org/2000/svg">
<path d="M9.97915 3.45666C10.1913 3.55869 10.3704 3.71857 10.4957 3.9179C10.621 4.11722 10.6875 4.34789 10.6875 4.58333C10.6875 5.96666 11.2075 6.76333 11.8591 7.73333L11.9075 7.80333C12.4608 8.62666 13.1875 9.705 13.1875 11.25C13.1875 12.8267 12.3925 14.2167 11.1808 15.0417C11.4997 15.3083 11.7808 15.6378 12.0241 16.03C12.8175 17.3133 13.1875 19.275 13.1875 22.0917C13.1875 24.945 12.8041 28.3717 12.1791 31.1083C11.8691 32.4683 11.4841 33.7233 11.0258 34.665C10.8104 35.1341 10.5237 35.567 10.1758 35.9483C9.83248 36.3 9.30415 36.675 8.60415 36.675C7.90415 36.675 7.37581 36.3 7.03415 35.9483C6.68627 35.567 6.39954 35.1341 6.18415 34.665C5.72415 33.7217 5.33915 32.4683 5.02915 31.1067C4.37845 28.1447 4.04049 25.1226 4.02081 22.09C4.02081 19.2733 4.39081 17.3133 5.18415 16.03C5.40952 15.6568 5.69439 15.3229 6.02748 15.0417C5.40908 14.6213 4.90292 14.056 4.55315 13.3951C4.20338 12.7342 4.02062 11.9977 4.02081 11.25C4.02081 10.6367 4.02081 9.58166 4.65915 8.22C5.28415 6.88666 6.47248 5.355 8.65581 3.60666C8.83983 3.45947 9.0617 3.36729 9.29584 3.34075C9.52998 3.31421 9.76686 3.35439 9.97915 3.45666ZM6.52081 11.2483C6.52081 11.8009 6.74031 12.3324 7.13101 12.7231C7.52171 13.1138 8.05161 13.3333 8.60415 13.3333C9.15668 13.3333 9.68658 13.1138 10.0773 12.7231C10.468 12.3324 10.6875 11.8025 10.6875 11.25C10.6875 10.5183 10.3791 10.0117 9.78415 9.12666L9.76415 9.09666C9.38248 8.53 8.93081 7.85833 8.61081 6.99666C7.70581 7.91666 7.20581 8.68 6.92415 9.28C6.52081 10.14 6.52081 10.7533 6.52081 11.2483ZM7.31081 17.3417C6.89748 18.0117 6.52081 19.385 6.52081 22.09C6.52081 24.7583 6.88415 27.9983 7.46581 30.55C7.75915 31.8333 8.09248 32.875 8.43081 33.5683C8.49304 33.6961 8.55081 33.8044 8.60415 33.8933C8.65748 33.8044 8.71526 33.6961 8.77748 33.5683C9.11581 32.875 9.44915 31.8317 9.74248 30.55C10.3258 28 10.6875 24.76 10.6875 22.09C10.6875 19.385 10.3108 18.0117 9.89748 17.3417C9.77173 17.1169 9.5836 16.9334 9.35581 16.8133C9.11949 16.709 8.86217 16.6611 8.60415 16.6733C8.27081 16.6733 8.03248 16.725 7.85248 16.8133C7.62469 16.9334 7.43656 17.1169 7.31081 17.3417ZM17.3541 24.8633C16.4714 24.7144 15.6126 24.4475 14.8008 24.07C14.8497 23.1247 14.8636 22.178 14.8425 21.2317C15.5941 21.7367 16.4425 22.1083 17.3541 22.315V17.5C17.3541 16.837 17.6175 16.2011 18.0864 15.7322C18.5552 15.2634 19.1911 15 19.8541 15H26.5208C26.5207 13.6012 26.1295 12.2302 25.3912 11.0421C24.6529 9.85391 23.597 8.8959 22.3429 8.27629C21.0888 7.65668 19.6863 7.40016 18.2941 7.5357C16.9018 7.67124 15.5752 8.19346 14.4641 9.04333C14.1308 8.12166 13.6558 7.41666 13.3258 6.92666L13.2591 6.82666C14.7566 5.77107 16.5152 5.14714 18.3431 5.02298C20.171 4.89881 21.9978 5.27919 23.6243 6.12258C25.2507 6.96598 26.6141 8.23997 27.5658 9.8055C28.5175 11.371 29.0208 13.1679 29.0208 15H34.8541C35.5172 15 36.1531 15.2634 36.6219 15.7322C37.0908 16.2011 37.3541 16.837 37.3541 17.5V32.5C37.3541 33.163 37.0908 33.7989 36.6219 34.2678C36.1531 34.7366 35.5172 35 34.8541 35H19.8541C19.1911 35 18.5552 34.7366 18.0864 34.2678C17.6175 33.7989 17.3541 33.163 17.3541 32.5V24.8633ZM19.8541 24.9683V32.5017H34.8541V17.5017H28.7041C28.1858 19.5105 27.0554 21.3084 25.4698 22.6462C23.8841 23.984 21.9216 24.7955 19.8541 24.9683ZM26.0941 17.5017H19.8541V22.4567C21.2547 22.3004 22.583 21.7527 23.6866 20.8764C24.7902 20 25.6246 18.8304 26.0941 17.5017Z" fill="#D9D9D9"/>
</svg>
