<svg width="41" height="40" viewBox="0 0 41 40" fill="none" xmlns="http://www.w3.org/2000/svg">
<path d="M5.80584 34.3367L16.4125 23.73M29.7692 19.0133L26.5942 28.5383C26.5435 28.691 26.4567 28.8292 26.3413 28.9412C26.2258 29.0532 26.085 29.1357 25.9308 29.1817L6.4675 34.9667C6.29215 35.0187 6.10588 35.0217 5.92895 34.9753C5.75203 34.9289 5.59122 34.8348 5.46405 34.7033C5.33687 34.5718 5.24819 34.408 5.20766 34.2296C5.16713 34.0513 5.1763 33.8652 5.23417 33.6917L11.5542 14.735C11.5995 14.5989 11.6735 14.4741 11.7713 14.3692C11.8691 14.2642 11.9883 14.1815 12.1208 14.1267L21.0992 10.43C21.2817 10.3546 21.4825 10.335 21.6761 10.3735C21.8698 10.4121 22.0478 10.5071 22.1875 10.6467L29.5275 17.99C29.6588 18.1213 29.751 18.2866 29.7937 18.4673C29.8364 18.6481 29.8279 18.8371 29.7692 19.0133Z" stroke="#D9D9D9" stroke-width="2.5" stroke-linecap="round" stroke-linejoin="round"/>
<path d="M29.9658 18.4267L34.6792 13.7117C35.3041 13.0866 35.6551 12.2389 35.6551 11.355C35.6551 10.4711 35.3041 9.62343 34.6792 8.99833L31.1458 5.46167C30.8363 5.152 30.4688 4.90634 30.0642 4.73874C29.6597 4.57114 29.2262 4.48488 28.7883 4.48488C28.3505 4.48488 27.9169 4.57114 27.5124 4.73874C27.1079 4.90634 26.7404 5.152 26.4308 5.46167L21.7175 10.1767M19.9475 20.1933C19.7153 19.9612 19.4396 19.7771 19.1362 19.6515C18.8329 19.526 18.5077 19.4614 18.1794 19.4615C17.8511 19.4615 17.526 19.5263 17.2227 19.652C16.9193 19.7777 16.6438 19.9619 16.4117 20.1942C16.1795 20.4264 15.9954 20.7021 15.8699 21.0054C15.7443 21.3088 15.6797 21.6339 15.6798 21.9623C15.6799 22.2906 15.7446 22.6157 15.8703 22.919C15.996 23.2223 16.1803 23.4979 16.4125 23.73C16.8815 24.1988 17.5175 24.462 18.1806 24.4619C18.8437 24.4617 19.4796 24.1982 19.9483 23.7292C20.4171 23.2602 20.6804 22.6242 20.6802 21.9611C20.68 21.298 20.4165 20.6621 19.9475 20.1933Z" stroke="#D9D9D9" stroke-width="2.5" stroke-linecap="round" stroke-linejoin="round"/>
</svg>
