<svg width="56" height="56" viewBox="0 0 56 56" fill="none" xmlns="http://www.w3.org/2000/svg">
<path d="M49 33.8625L38.6991 29.2447L38.6597 29.2272C37.9901 28.9385 37.2589 28.8223 36.5328 28.8892C35.8067 28.9561 35.109 29.2039 34.5034 29.61C34.4185 29.6668 34.3367 29.7281 34.2584 29.7937L29.3781 33.95C26.5344 32.4078 23.5965 29.4941 22.0522 26.6853L26.2215 21.7284C26.2885 21.6483 26.3506 21.5643 26.4075 21.4769C26.8029 20.8734 27.043 20.1816 27.1064 19.4629C27.1698 18.7443 27.0544 18.0211 26.7706 17.3578C26.7639 17.3451 26.758 17.3319 26.7531 17.3184L22.1375 6.99999C21.7586 6.13707 21.112 5.41905 20.2933 4.9522C19.4747 4.48535 18.5274 4.29446 17.5919 4.4078C14.4164 4.82494 11.5014 6.38371 9.39122 8.79298C7.28105 11.2023 6.12002 14.2973 6.12499 17.5C6.12499 35.3522 20.6478 49.875 38.5 49.875C41.7027 49.88 44.7977 48.7189 47.207 46.6087C49.6163 44.4986 51.175 41.5836 51.5922 38.4081C51.7055 37.4725 51.5146 36.5253 51.0478 35.7066C50.5809 34.888 49.8629 34.2414 49 33.8625ZM38.5 44.625C31.3087 44.6163 24.4143 41.7557 19.3293 36.6707C14.2443 31.5856 11.3837 24.6913 11.375 17.5C11.37 15.6876 11.9853 13.9281 13.1186 12.5138C14.2519 11.0996 15.8351 10.1156 17.605 9.72561L21.7219 18.9131L17.5306 23.905C17.4629 23.9857 17.4 24.0705 17.3425 24.1587C16.9294 24.7899 16.6865 25.5173 16.6374 26.27C16.5884 27.0228 16.7348 27.7755 17.0625 28.455C19.1231 32.6725 23.369 36.89 27.6303 38.955C28.3143 39.2793 29.0708 39.4205 29.8258 39.3649C30.5807 39.3093 31.3083 39.0588 31.9375 38.6378C32.022 38.5806 32.103 38.5185 32.1803 38.4519L37.0869 34.2803L46.2744 38.395C45.8843 40.1649 44.9004 41.748 43.4861 42.8814C42.0719 44.0147 40.3123 44.63 38.5 44.625Z" fill="black"/>
</svg>
